<svg width="63" height="63" viewBox="0 0 63 63" fill="none" xmlns="http://www.w3.org/2000/svg">
<path d="M52.8153 20.4932L52.8245 20.4938L52.8337 20.4945L56.6292 20.7475C57.729 20.8208 58.651 21.6058 58.8989 22.6798L59.1099 23.5942C59.2375 24.1472 59.1217 24.7285 58.7917 25.1904L58.3306 25.836C57.3223 27.2477 57.0503 29.0565 57.5989 30.7022C57.6462 30.8444 57.6147 31.001 57.5161 31.1137L56.2148 32.6009C55.1093 33.8643 54.5 35.486 54.5 37.1648C54.5 37.6768 54.2966 38.1679 53.9345 38.5299L53.6967 38.7678C52.2902 40.1743 51.5 42.0819 51.5 44.0711V44.544C51.5 45.0195 51.3644 45.4851 51.1092 45.8862L49.8644 47.8422C49.4055 48.5633 48.61 49 47.7553 49H6.94542C6.17394 49 5.44568 48.6438 4.97204 48.0349L4.02662 46.8193C3.68531 46.3805 3.5 45.8404 3.5 45.2845V22.7363C3.5 21.8839 3.93437 21.0902 4.65237 20.6307L13.6154 14.8943C14.0177 14.6368 14.4854 14.5 14.963 14.5H33.9098C34.8568 14.5 35.7224 15.035 36.1459 15.882L36.7639 17.118C37.4678 18.5259 38.8606 19.4595 40.4303 19.5758L52.8153 20.4932Z" stroke="black" stroke-width="5"/>
<path d="M18.6437 20.2138C18.8769 20.0739 19.1436 20 19.4155 20H55.4995C55.4998 20 55.5001 20.0002 55.5002 20.0005L56.6279 23.3838C56.7772 23.8317 56.3405 24.2527 55.8983 24.0869L55.3408 23.8778C54.8683 23.7006 54.9953 23 55.5 23V23H19.4155C17.8941 23 17.3392 20.9965 18.6437 20.2138V20.2138Z" fill="black"/>
<path d="M18.6437 20.2138C18.8769 20.0739 19.1436 20 19.4155 20H55.4995C55.4998 20 55.5001 20.0002 55.5002 20.0005L56.6279 23.3838C56.7772 23.8317 56.3405 24.2527 55.8983 24.0869L55.3408 23.8778C54.8683 23.7006 54.9953 23 55.5 23V23H19.4155C17.8941 23 17.3392 20.9965 18.6437 20.2138V20.2138Z" fill="black"/>
<path d="M32.7094 26.5379C33.0797 26.1922 33.5675 26 34.074 26H56.3938C57.7088 26 58.6659 27.2473 58.3257 28.5175V28.5175C58.0914 29.3919 57.2991 30 56.3938 30H34.074C32.2588 30 31.3824 27.7765 32.7094 26.5379V26.5379Z" fill="black"/>
<path d="M32.7094 26.5379C33.0797 26.1922 33.5675 26 34.074 26H56.3938C57.7088 26 58.6659 27.2473 58.3257 28.5175V28.5175C58.0914 29.3919 57.2991 30 56.3938 30H34.074C32.2588 30 31.3824 27.7765 32.7094 26.5379V26.5379Z" fill="black"/>
<path d="M33.4142 33.5858C33.7893 33.2107 34.298 33 34.8284 33H55.4384C56.7396 33 57.6943 34.2228 57.3787 35.4851V35.4851C57.1561 36.3754 56.3562 37 55.4384 37H34.8284C33.0466 37 32.1543 34.8457 33.4142 33.5858V33.5858Z" fill="black"/>
<path d="M33.4142 33.5858C33.7893 33.2107 34.298 33 34.8284 33H55.4384C56.7396 33 57.6943 34.2228 57.3787 35.4851V35.4851C57.1561 36.3754 56.3562 37 55.4384 37H34.8284C33.0466 37 32.1543 34.8457 33.4142 33.5858V33.5858Z" fill="black"/>
<path d="M33.3335 40.5999C33.7096 40.2162 34.2243 40 34.7616 40H51.0469C52.6863 40 53.6294 41.864 52.6582 43.1848V43.1848C52.2814 43.6973 51.6831 44 51.0469 44H34.7616C32.9893 44 32.0928 41.8654 33.3335 40.5999V40.5999Z" fill="black"/>
<path d="M33.3335 40.5999C33.7096 40.2162 34.2243 40 34.7616 40H51.0469C52.6863 40 53.6294 41.864 52.6582 43.1848V43.1848C52.2814 43.6973 51.6831 44 51.0469 44H34.7616C32.9893 44 32.0928 41.8654 33.3335 40.5999V40.5999Z" fill="black"/>
<circle cx="55.5" cy="24.5" r="1.5" fill="white"/>
<circle cx="34.5" cy="18.5" r="1.5" fill="white"/>
<circle cx="54.5" cy="31.5" r="1.5" fill="white"/>
<circle cx="51.5" cy="38.5" r="1.5" fill="white"/>
<circle cx="49.25" cy="45.25" r="1.25" fill="white"/>
<rect x="47" y="44" width="2" height="2.5" fill="white"/>
<rect x="49" y="37" width="2.5" height="3" fill="white"/>
<rect x="52" y="30" width="2.5" height="3" fill="white"/>
<rect x="53" y="23" width="2.5" height="3" fill="white"/>
<path d="M32 17H34.5L36 18.5V20H32V17Z" fill="white"/>
</svg>
