<svg width="63" height="63" viewBox="0 0 63 63" fill="none" xmlns="http://www.w3.org/2000/svg">
<ellipse cx="23.5" cy="28" rx="16.5" ry="17" fill="black"/>
<rect x="19" y="4" width="9" height="47" fill="black"/>
<rect y="32" width="9" height="47" transform="rotate(-90 0 32)" fill="black"/>
<rect x="3.70972" y="13.5757" width="7.94082" height="47.9481" transform="rotate(-45 3.70972 13.5757)" fill="black"/>
<rect x="9.87939" y="47.3717" width="8.89902" height="47.3372" transform="rotate(-135 9.87939 47.3717)" fill="black"/>
<ellipse cx="23" cy="28" rx="13.5" ry="14" fill="white"/>
<rect x="21.5" y="7" width="4" height="41" fill="white"/>
<rect x="3" y="29.5" width="4" height="41" transform="rotate(-90 3 29.5)" fill="white"/>
<rect x="7.59009" y="14.4185" width="4" height="41" transform="rotate(-45 7.59009 14.4185)" fill="white"/>
<rect x="10.4185" y="43.4099" width="4" height="41" transform="rotate(-135 10.4185 43.4099)" fill="white"/>
<circle cx="23.5" cy="27.5" r="7.5" fill="white" stroke="black" stroke-width="4"/>
<ellipse cx="33.5" cy="38" rx="16.5" ry="17" fill="black"/>
<rect x="29" y="14" width="9" height="47" fill="black"/>
<rect x="10" y="42" width="9" height="47" transform="rotate(-90 10 42)" fill="black"/>
<rect x="13.7097" y="23.5757" width="7.94082" height="47.9481" transform="rotate(-45 13.7097 23.5757)" fill="black"/>
<rect x="19.8794" y="57.3717" width="8.89902" height="47.3372" transform="rotate(-135 19.8794 57.3717)" fill="black"/>
<ellipse cx="33" cy="38" rx="13.5" ry="14" fill="white"/>
<rect x="31.5" y="17" width="4" height="41" fill="white"/>
<rect x="13" y="39.5" width="4" height="41" transform="rotate(-90 13 39.5)" fill="white"/>
<rect x="17.5901" y="24.4185" width="4" height="41" transform="rotate(-45 17.5901 24.4185)" fill="white"/>
<rect x="20.4185" y="53.4099" width="4" height="41" transform="rotate(-135 20.4185 53.4099)" fill="white"/>
<circle cx="33.5" cy="37.5" r="7.5" fill="white" stroke="black" stroke-width="4"/>
</svg>
