<svg width="63" height="63" viewBox="0 0 63 63" fill="none" xmlns="http://www.w3.org/2000/svg">
<path d="M15.9285 31.3212L15.982 31.2998L16.0345 31.2759L20.464 29.2625C22.428 28.3698 23.1246 25.9299 21.9278 24.1348L20.5409 22.0545C20.0641 21.3392 19.7138 20.5472 19.5053 19.7132L19.3784 19.2058C19.1538 18.3075 19.0975 17.3754 19.2124 16.4566L19.6513 12.9452C19.8132 11.6501 20.3103 10.4196 21.0934 9.37548L21.7383 8.51562C22.1176 8.00984 22.5594 7.55405 23.0531 7.15911L25.3575 5.31557C26.1997 4.6418 27.1773 4.15761 28.2237 3.89602L29.9248 3.47074C31.0021 3.20141 32.1258 3.17467 33.2147 3.39245L36.1949 3.98848C37.3366 4.21683 38.4095 4.70786 39.3286 5.4227L40.3541 6.22038C41.1514 6.84049 41.8152 7.61525 42.3058 8.49819L42.8737 9.52049C43.3398 10.3595 43.6406 11.2802 43.7596 12.2326L44.2876 16.4566C44.4025 17.3754 44.3462 18.3075 44.1216 19.2058L43.9947 19.7132C43.7862 20.5472 43.4359 21.3392 42.9591 22.0545L41.5482 24.1707C40.3805 25.9224 41.0122 28.3012 42.8952 29.2427L46.0507 30.8204C46.7419 31.166 47.4637 31.4468 48.2068 31.6591L48.5896 31.7685C49.6869 32.082 50.6982 32.6418 51.5465 33.4052L54.7787 36.3142L57.3033 38.8388C58.7098 40.2454 59.5 42.153 59.5 44.1421V60.5H2.5V44.638C2.5 42.4319 3.4713 40.3376 5.15543 38.9126L8.05878 36.4559L12.9419 32.7936C13.4687 32.3985 14.0451 32.0745 14.6565 31.83L15.9285 31.3212Z" stroke="black" stroke-width="5"/>
<line x1="15.5" y1="50" x2="15.5" y2="62" stroke="black" stroke-width="5"/>
<line x1="47.5" y1="50" x2="47.5" y2="62" stroke="black" stroke-width="5"/>
<path d="M30.5077 1.67249C31.3029 0.781215 32.6971 0.781215 33.4923 1.67249L43.7498 13.1685C44.8999 14.4574 43.985 16.5 42.2575 16.5H21.7425C20.015 16.5 19.1001 14.4574 20.2502 13.1685L30.5077 1.67249Z" fill="black"/>
<path d="M30.5077 1.67249C31.3029 0.781215 32.6971 0.781215 33.4923 1.67249L43.7498 13.1685C44.8999 14.4574 43.985 16.5 42.2575 16.5H21.7425C20.015 16.5 19.1001 14.4574 20.2502 13.1685L30.5077 1.67249Z" fill="black"/>
<path d="M30.5077 1.67249C31.3029 0.781215 32.6971 0.781215 33.4923 1.67249L43.7498 13.1685C44.8999 14.4574 43.985 16.5 42.2575 16.5H21.7425C20.015 16.5 19.1001 14.4574 20.2502 13.1685L30.5077 1.67249Z" fill="black"/>
<path d="M21.1539 13.152L30.3399 15.9873L19.681 22.6521L21.1539 13.152Z" fill="black"/>
<path d="M22 27V29.9672C22 31.9304 22.6682 33.8352 23.8946 35.3682V35.3682C25.2486 37.0607 27.1889 38.1829 29.3311 38.5125L30.9794 38.7661C31.9872 38.9211 33.0128 38.9211 34.0206 38.7661L35.7329 38.5026C37.8198 38.1816 39.6848 37.0217 40.8956 35.292V35.292C41.9324 33.8109 42.4178 32.0136 42.2677 30.2119L42 27" stroke="black" stroke-width="3"/>
</svg>
