<svg width="16" height="16" viewBox="0 0 16 16" fill="none" xmlns="http://www.w3.org/2000/svg">
<circle cx="8" cy="8" r="8" fill="#009646"/>
<path fill-rule="evenodd" clip-rule="evenodd" d="M8.16875 4.12938C7.69242 4.12938 7.30625 4.47692 7.30625 4.90563V7.105H4.8625C4.38616 7.105 4 7.45253 4 7.88125C4 8.30995 4.38616 8.6575 4.8625 8.6575H7.30625V10.8569C7.30625 11.2856 7.69242 11.6331 8.16875 11.6331C8.64511 11.6331 9.03125 11.2856 9.03125 10.8569V8.6575H11.475C11.9513 8.6575 12.3375 8.30995 12.3375 7.88125C12.3375 7.45253 11.9513 7.105 11.475 7.105H9.03125V4.90563C9.03125 4.47692 8.64511 4.12938 8.16875 4.12938V4.12938Z" fill="white"/>
</svg>
