<svg width="30" height="26" viewBox="0 0 30 26" fill="none" xmlns="http://www.w3.org/2000/svg">
<g filter="url(#filter0_d_20_176)">
<rect width="30" height="25" rx="4" fill="url(#paint0_linear_20_176)"/>
<rect x="0.5" y="0.5" width="29" height="24" rx="3.5" stroke="#9B9B9B"/>
</g>
<rect x="9.5" y="5.5" width="11" height="13" stroke="#BBBABA"/>
<path d="M19.5 8.5L17.5 6.5H16.5V9.5H19.5V8.5Z" stroke="#B5B5B5"/>
<circle cx="12" cy="16" r="4" fill="#009646"/>
<path fill-rule="evenodd" clip-rule="evenodd" d="M12 13C11.6572 13 11.3793 13.2779 11.3793 13.6207V15.3793H9.62069C9.27789 15.3793 9 15.6572 9 16C9 16.3428 9.27789 16.6207 9.62069 16.6207H11.3793V18.3793C11.3793 18.7221 11.6572 19 12 19C12.3428 19 12.6207 18.7221 12.6207 18.3793V16.6207H14.3793C14.7221 16.6207 15 16.3428 15 16C15 15.6572 14.7221 15.3793 14.3793 15.3793H12.6207V13.6207C12.6207 13.2779 12.3428 13 12 13V13Z" fill="white"/>
<defs>
<filter id="filter0_d_20_176" x="0" y="0" width="30" height="26" filterUnits="userSpaceOnUse" color-interpolation-filters="sRGB">
<feFlood flood-opacity="0" result="BackgroundImageFix"/>
<feColorMatrix in="SourceAlpha" type="matrix" values="0 0 0 0 0 0 0 0 0 0 0 0 0 0 0 0 0 0 127 0" result="hardAlpha"/>
<feOffset dy="1"/>
<feColorMatrix type="matrix" values="0 0 0 0 0.290222 0 0 0 0 0.290175 0 0 0 0 0.290237 0 0 0 0.196473 0"/>
<feBlend mode="normal" in2="BackgroundImageFix" result="effect1_dropShadow_20_176"/>
<feBlend mode="normal" in="SourceGraphic" in2="effect1_dropShadow_20_176" result="shape"/>
</filter>
<linearGradient id="paint0_linear_20_176" x1="0" y1="0" x2="0" y2="25" gradientUnits="userSpaceOnUse">
<stop offset="0.625" stop-color="white"/>
<stop offset="1" stop-color="#E9E9E9"/>
</linearGradient>
</defs>
</svg>
