<svg width="9" height="10" viewBox="0 0 9 10" fill="none" xmlns="http://www.w3.org/2000/svg">
<rect x="0.5" y="1.5" width="8" height="8" stroke="#545454"/>
<rect x="1" y="2" width="7" height="2" fill="#545454"/>
<line x1="3" y1="5.5" x2="2" y2="5.5" stroke="#545454"/>
<line x1="7" y1="1.5" x2="6" y2="1.5" stroke="white"/>
<line x1="7" y1="1.5" x2="6" y2="1.5" stroke="white"/>
<line x1="7" y1="1.5" x2="6" y2="1.5" stroke="white"/>
<line x1="3" y1="1.5" x2="2" y2="1.5" stroke="white"/>
<line x1="3" y1="1.5" x2="2" y2="1.5" stroke="white"/>
<line x1="3" y1="1.5" x2="2" y2="1.5" stroke="white"/>
<line x1="7" y1="7.5" x2="6" y2="7.5" stroke="#545454"/>
<line x1="5" y1="7.5" x2="4" y2="7.5" stroke="#545454"/>
<line x1="3" y1="7.5" x2="2" y2="7.5" stroke="#545454"/>
<line x1="7" y1="5.5" x2="6" y2="5.5" stroke="#545454"/>
<line x1="7" y1="0.5" x2="6" y2="0.5" stroke="#545454"/>
<line x1="3" y1="0.5" x2="2" y2="0.5" stroke="#545454"/>
<line x1="5" y1="5.5" x2="4" y2="5.5" stroke="#545454"/>
</svg>
