<svg width="23" height="18" viewBox="0 0 23 18" fill="none" xmlns="http://www.w3.org/2000/svg">
<path d="M21.8297 8.18077C22.3984 8.57887 22.3984 9.42113 21.8297 9.81923L17.2126 13.0512C16.3122 13.6814 15.2019 12.6091 15.8004 11.6874L17.1918 9.54461C17.4069 9.21339 17.4069 8.78661 17.1918 8.45539L15.8004 6.31263C15.2019 5.3909 16.3122 4.31855 17.2126 4.9488L21.8297 8.18077Z" fill="#545454"/>
<path d="M1.17033 9.81923C0.601616 9.42113 0.601615 8.57887 1.17033 8.18077L5.78743 4.9488C6.68778 4.31855 7.79812 5.3909 7.19959 6.31263L5.80819 8.45539C5.59311 8.78661 5.59311 9.21339 5.80819 9.54461L7.19959 11.6874C7.79812 12.6091 6.68778 13.6814 5.78743 13.0512L1.17033 9.81923Z" fill="#545454"/>
<line x1="13.9594" y1="0.282166" x2="8.95936" y2="17.2822" stroke="#545454" stroke-width="2"/>
</svg>
