<svg width="22" height="22" viewBox="0 0 22 22" fill="none" xmlns="http://www.w3.org/2000/svg">
<path fill-rule="evenodd" clip-rule="evenodd" d="M13.6233 1.30005C13.6233 0.747764 13.1756 0.300049 12.6233 0.300049L10.5493 0.300049C9.99703 0.300049 9.54932 0.747764 9.54932 1.30005V2.35403C9.54932 2.83502 9.20482 3.24187 8.74262 3.37497C8.21806 3.52604 7.71484 3.72414 7.23834 3.96415C6.8307 4.16948 6.33161 4.12327 6.00158 3.80796L5.2381 3.07853C4.85159 2.70925 4.24301 2.70925 3.8565 3.07853L2.42332 4.4478C2.01105 4.84168 2.01105 5.50001 2.42332 5.89389L3.2027 6.63852C3.53827 6.95912 3.60277 7.46587 3.40836 7.88729C3.28328 8.15843 3.17325 8.43733 3.07926 8.72302C2.93229 9.16978 2.53205 9.50005 2.06173 9.50005H1C0.447715 9.50005 0 9.94776 0 10.5L0 12.3924C0 12.9447 0.447715 13.3924 1 13.3924H2.26612C2.70864 13.3924 3.09252 13.686 3.25844 14.0962C3.40391 14.4559 3.57537 14.8033 3.77062 15.1361C4.02604 15.5716 3.98453 16.1346 3.6195 16.4833L2.97505 17.0991C2.56279 17.4929 2.56279 18.1513 2.97505 18.5452L4.40823 19.9144C4.79474 20.2837 5.40333 20.2837 5.78984 19.9144L6.84944 18.9021C7.15151 18.6135 7.59923 18.5484 7.98846 18.7001C8.22886 18.7938 8.47475 18.8774 8.72554 18.9502C9.18666 19.084 9.53 19.4904 9.53 19.9705V20.9999C9.53 21.5522 9.97771 21.9999 10.53 21.9999H12.604C13.1563 21.9999 13.604 21.5522 13.604 20.9999V19.7307C13.604 19.2823 13.9048 18.8943 14.3244 18.7363C14.5538 18.6499 14.7783 18.5543 14.9974 18.45C15.4013 18.2576 15.8882 18.3087 16.2116 18.6177L17.1899 19.5524C17.5764 19.9217 18.185 19.9217 18.5715 19.5524L20.0047 18.1831C20.417 17.7892 20.417 17.1309 20.0047 16.737L19.1122 15.8843C18.7696 15.557 18.7101 15.037 18.9187 14.6116C19.0287 14.3872 19.1283 14.1572 19.2169 13.9222C19.3765 13.4988 19.7664 13.1924 20.2188 13.1924H20.9998C21.5521 13.1924 21.9998 12.7447 21.9998 12.1924V10.3C21.9998 9.74776 21.5521 9.30005 20.9998 9.30005H20.2778C19.8173 9.30005 19.4228 8.98305 19.2686 8.54916C19.2221 8.41819 19.1722 8.28871 19.119 8.16083C18.9466 7.74661 19.0185 7.26091 19.3429 6.95098L20.1048 6.22309C20.5171 5.82921 20.5171 5.17088 20.1048 4.777L18.6716 3.40773C18.2851 3.03846 17.6765 3.03846 17.29 3.40773L16.7055 3.9662C16.365 4.29147 15.8466 4.32951 15.4336 4.10325C15.0844 3.91188 14.7196 3.74349 14.3415 3.60021C13.923 3.44163 13.6233 3.05417 13.6233 2.60664V1.30005Z" fill="#4D4D4D"/>
<circle cx="11.3999" cy="11.3" r="4.5" fill="white"/>
</svg>
