<svg width="18" height="17" viewBox="0 0 18 17" fill="none" xmlns="http://www.w3.org/2000/svg">
<path d="M7.64655 4.64638L9.60712 2.48456C10.1758 1.85753 10.9829 1.49992 11.8294 1.49992L12.2575 1.49992C13.0531 1.49992 13.8162 1.81599 14.3788 2.3786L14.6214 2.62124C15.184 3.18385 15.5001 3.94691 15.5001 4.74256L15.5001 5.25727C15.5001 6.05293 15.184 6.81599 14.6214 7.3786L12.5 9.49999" stroke="#585858"/>
<path d="M9.327 12.2544L7.18548 14.2371C6.56434 14.8122 5.72915 15.0981 4.88588 15.0244L4.4594 14.987C3.66678 14.9177 2.93417 14.5363 2.42274 13.9268L2.20217 13.664C1.69074 13.0544 1.44237 12.2667 1.51172 11.4741L1.55658 10.9614C1.62593 10.1687 2.0073 9.43613 2.6168 8.9247L4.91493 6.99633" stroke="#585858"/>
<line x1="10.9063" y1="6.35568" x2="6.35142" y2="10.856" stroke="#585858"/>
</svg>