<svg width="33" height="33" viewBox="0 0 33 33" fill="none" xmlns="http://www.w3.org/2000/svg">
<path d="M15.689 9.67618C15.689 13.5422 12.555 16.6762 8.68896 16.6762C4.82297 16.6762 1.68896 11.3524 1.68896 9.67618C1.68896 8 7 2.73809 8.68896 2.67618C10.3779 2.61426 15.689 5.81018 15.689 9.67618Z" fill="black"/>
<path d="M30.689 24.6763C30.689 25.8525 25 31.6763 23.689 31.6763C22.3779 31.6763 16.689 28.5423 16.689 24.6763C16.689 20.8103 19.823 17.6763 23.689 17.6763C27.555 17.6763 30.689 23.5 30.689 24.6763Z" fill="black"/>
<rect x="7.05396" y="12.423" width="6" height="15.2465" transform="rotate(-45 7.05396 12.423)" fill="black"/>
<path d="M7.93426 4.03528L10.7627 6.8637L9.72741 10.7274L5.86371 11.7627L3.03528 8.93426L4.07056 5.07055L7.93426 4.03528Z" fill="white"/>
<path d="M26.9343 23.0353L29.7627 25.8637L28.7274 29.7274L24.8637 30.7627L22.0353 27.9343L23.0706 24.0706L26.9343 23.0353Z" fill="white"/>
<rect x="23.1521" y="29.0298" width="6.92389" height="4.32971" rx="1" transform="rotate(-45 23.1521 29.0298)" fill="white"/>
<rect x="1" y="6.90076" width="6.93071" height="5.48968" rx="1" transform="rotate(-45 1 6.90076)" fill="white"/>
</svg>
